<svg t="1683125160798" class="icon" viewBox="0 0 1024 1024" version="1.1" xmlns="http://www.w3.org/2000/svg" p-id="2084" width="200" height="200">
  <path d="M896 832H128a96 96 0 0 1-96-96V160a96 96 0 0 1 96-96h768a96 96 0 0 1 96 96v576a96 96 0 0 1-96 96z m32-672a32 32 0 0 0-32-32H128a32 32 0 0 0-32 32v576a32 32 0 0 0 32 32h768a32 32 0 0 0 32-32V160z m-288.256 394.496l96-106.496-96-106.496 48-53.248 144 159.744-144 159.712z m-303.456 53.248L192.256 448l144-159.712 48 53.248-96 106.464 96 106.496zM832 960H192v-64h640v64z" fill="#49b1f5" p-id="2085">
  </path>
</svg>